PathFileType	4	(X/Y/Z)	6_coords_data.trc
DataRate	CameraRate	NumFrames	NumMarkers	Units	OrigDataRate	OrigDataStartFrame	OrigNumFrames
30.0	30.0	8	21	m	30.0	61	71
Frame#	Time	THUMB_TIP	THUMB_IP	THUMB_MCP	THUMB_CMC	INDEX_TIP	INDEX_DIP	INDEX_PIP	INDEX_MCP	MIDDLE_TIP	MIDDLE_DIP	MIDDLE_PIP	MIDDLE_MCP	RING_TIP	RING_DIP	RING_PIP	RING_MCP	PINKY_TIP	PINKY_DIP	PINKY_PIP	PINKY_MCP	WRIST
X1	Y1	Z1	X2	Y2	Z2	X3	Y3	Z3	X4	Y4	Z4	X5	Y5	Z5	X6	Y6	Z6	X7	Y7	Z7	X8	Y8	Z8	X9	Y9	Z9	X10	Y10	Z10	X11	Y11	Z11	X12	Y12	Z12	X13	Y13	Z13	X14	Y14	Z14	X15	Y15	Z15	X16	Y16	Z16	X17	Y17	Z17	X18	Y18	Z18	X19	Y19	Z19	X20	Y20	Z20	X21	Y21	Z21
59	1.9999999999999911	0.55546089810538	0.027679113596704608	-0.11283900939032443	0.5347186107088119	0.01903454482702771	-0.10804016115929033	0.5113995672711743	0.014412095019683213	-0.08794849196700688	0.47702738882806905	-0.009427798883088423	-0.07245324083061278	0.5759220798531797	-0.030953262152024985	-0.1725511735329766	0.568522796426724	-0.028515336486874987	-0.15620164377747037	0.5568934119558785	-0.024955538396599253	-0.13419948280665372	0.5316958028034008	-0.019712455372017046	-0.10026975148740641	0.5526037883317991	-0.05189047331981661	-0.1850513388041944	0.5515985762163481	-0.052839959429101746	-0.16699343126397193	0.5465196447649319	-0.051682328168115466	-0.1383181126925	0.5248312148475947	-0.04343654684045417	-0.10013739741610483	0.5321410297284771	-0.07345241156690602	-0.18265106767573908	0.5296728010755556	-0.0732543552203554	-0.16479417486090442	0.5250209631727876	-0.07048939731870957	-0.14048583491494143	0.5106613562057353	-0.05954041124973569	-0.10431067457233612	0.496102157616375	-0.08309029964703424	-0.17620273272241943	0.4948174061059375	-0.08126475024026908	-0.15923167550962664	0.4935568377777898	-0.0780858806554911	-0.13851651742060778	0.4898725991620486	-0.06726345046850313	-0.1043085528265244	0.4622830810018608	-0.023011742144276925	-0.051989820119430985
60	2.0333333333333243	0.5547355779766027	0.028303182053372566	-0.11365817864826105	0.5341234867390003	0.019571443831481794	-0.10847180781335841	0.5111915552632474	0.014700736690255845	-0.08799687849148319	0.47704805934576855	-0.009422615196366668	-0.07243488696445533	0.5765371048234508	-0.03138324173094187	-0.17227977576333586	0.5689665993609047	-0.028901241355448692	-0.1560154860100877	0.5571079495644908	-0.02526488516719394	-0.13414863503245128	0.5315035473791087	-0.01984081507719182	-0.100553543926935	0.5544617047628527	-0.053894338497251004	-0.18452298786436133	0.5528695590872749	-0.0544079545591129	-0.1664896501065103	0.5470192654083087	-0.05258680310694752	-0.13799636982399233	0.5245779605116143	-0.043449750067101334	-0.10045905482570494	0.5334632196158575	-0.07560939300087749	-0.18216486244226188	0.530508164236437	-0.0748446589323899	-0.16439739696434258	0.5253346799272116	-0.07138126690136098	-0.14028474562232696	0.5103496368925342	-0.05939788032156407	-0.10469587425320348	0.4961092928682945	-0.08350956666071685	-0.17635597346653126	0.4947412621162601	-0.08156281984372399	-0.1594049065770397	0.4934166423403926	-0.07824710826533215	-0.13871521208489462	0.48959006948136385	-0.06703447308199256	-0.1046488415209515	0.4622830810018608	-0.023011742144276925	-0.051989820119430985
61	2.0666666666666575	0.5538918645143346	0.028914921701783336	-0.11463379171906896	0.5334400597902134	0.020048142015455905	-0.10905670452945576	0.5108988028624508	0.014949826923168708	-0.0882067903968663	0.47703418583078216	-0.009445033243591361	-0.07245977446550206	0.5770875640802252	-0.03200090757784679	-0.17198650060861526	0.5693805543940906	-0.02944174187816917	-0.15579845957149718	0.5573171649344313	-0.02568755180187443	-0.1340639127711694	0.5313315841224798	-0.019995517878855673	-0.10080753843955087	0.5559216353089577	-0.055828093580849836	-0.18394487573492052	0.5538952433297386	-0.05593872428406149	-0.16594816780279964	0.5474199328742073	-0.05350090577842431	-0.1376367399787201	0.5243817022279242	-0.04352194908633156	-0.10067989659314402	0.5343197914706374	-0.07749846992244447	-0.18164033988580297	0.5310445264571068	-0.07628436145594636	-0.1639542272625406	0.5255227316257073	-0.07226328214124983	-0.14000593542398032	0.5101248367302662	-0.05938372355068244	-0.10490974421608579	0.4961220550089749	-0.08427464996364797	-0.17629001866857863	0.494681600307714	-0.08214417055742973	-0.15936707129664324	0.4933235334659838	-0.0786413561587248	-0.13871040252499428	0.48938703043775866	-0.06696245597163575	-0.10481363740900146	0.4622830810018609	-0.023011742144276925	-0.051989820119430985
63	2.100000000000002	0.5530611299644166	0.02946354800064499	-0.11556521223700805	0.5327710986402672	0.02047413694355471	-0.1096065951397528	0.5106235320053316	0.015194600062356844	-0.08838321693384132	0.47702590978008275	-0.009466704908338563	-0.07248007831431663	0.5773380673823336	-0.032735433844883643	-0.17182493490756245	0.5695765723806414	-0.030088662027142776	-0.15567706215962696	0.5574160931151545	-0.026194096558896596	-0.13402146388003172	0.5312042264190403	-0.020188343128590636	-0.10099866775312083	0.5567610657982798	-0.05732687037385209	-0.1835174691262172	0.5544728709137763	-0.05716931243297296	-0.16555252159871797	0.5476309627311816	-0.05430325504748129	-0.1373677108403678	0.5242102050146691	-0.04366439883359069	-0.10083784952876967	0.5346641559211461	-0.07884113628630407	-0.18131418611893335	0.531201623751061	-0.07733393812302713	-0.16368638918716272	0.5254820272839006	-0.0729497425132411	-0.1398484986742003	0.5098999452927653	-0.05944549475086519	-0.1050698436226617	0.4959950881182471	-0.08496168601821003	-0.17621633217763505	0.49452639027608736	-0.08267757800930575	-0.1593158654014749	0.49316707743627586	-0.07901936947940286	-0.13868623142616476	0.4891652363747139	-0.06695631486155823	-0.10493195121750232	0.4622830810018609	-0.023011742144276925	-0.051989820119430985
64	2.1333333333333355	0.5521269391738076	0.02995679125830919	-0.11664095227334326	0.532023434117598	0.020831998055067302	-0.11027014122191325	0.5102936058275767	0.01540721254095856	-0.08865518656981852	0.47699202508992933	-0.009513500676148645	-0.07253523703129178	0.5775393923999016	-0.033495540392941	-0.17165124971216789	0.5697432824459288	-0.03074755266828788	-0.15553699412741556	0.5575119233781789	-0.026696850701232733	-0.13395006516728164	0.5311074044571854	-0.02035686698549477	-0.10114393645578812	0.5572986187131411	-0.05865295914508617	-0.1831306556311147	0.5548467325757996	-0.058260544940468284	-0.16519091579293627	0.54778001188228	-0.05501968236854177	-0.13710234483552242	0.5241088310983437	-0.04379533417389947	-0.10091067274235099	0.5347997741846428	-0.07996376761121188	-0.18101559519090177	0.5312347817323184	-0.07822349490807573	-0.16342974065569105	0.5254231485341179	-0.07355419459696472	-0.13966837425612905	0.5097682848477502	-0.05953241879633475	-0.10512802277618433	0.4959939826463319	-0.08571438840378892	-0.17603608423073852	0.49449345253353094	-0.08326970802010492	-0.15916089690726837	0.4931214047276553	-0.079444094352972	-0.13856249444765423	0.489040983405835	-0.0670050795600447	-0.10495439239148668	0.4622830810018608	-0.023011742144276925	-0.051989820119430985
65	2.1666666666666687	0.551136737545122	0.03036108447404462	-0.11780406023095735	0.5312345946676962	0.021103414363531914	-0.11100698343196186	0.5099348844923868	0.015579882223489161	-0.08899260315120572	0.4769388517269152	-0.009578638725876942	-0.07261577057038499	0.5777049027651318	-0.034258729113250674	-0.17146582584331277	0.5698897529115989	-0.03140429542236134	-0.1553793209068406	0.557609907969157	-0.027192321551624876	-0.13385086259460144	0.5310407141319389	-0.020514126844297986	-0.10124540678899491	0.5576174967396843	-0.059800032877415865	-0.18278911649086194	0.5550715514605817	-0.059206484791005765	-0.16486801542801055	0.5478820209259057	-0.055647072319782664	-0.13684925771909945	0.5240628754039229	-0.043926157556235745	-0.10091297543074518	0.5348046444487952	-0.08088807073889343	-0.18074565165868178	0.5311956140911087	-0.0789662836625658	-0.16318770091519924	0.5253607908026576	-0.07407925381689295	-0.13947585249547345	0.5097068675964959	-0.05964488799595702	-0.10510544944862227	0.49607746595799607	-0.08647594676669101	-0.1757849676641559	0.4945450478458919	-0.0838779233886277	-0.15893557689603827	0.49314999993901554	-0.07988522337941195	-0.1383704557688985	0.48898747916252994	-0.06709957083083101	-0.10490280032827498	0.4622830810018609	-0.023011742144276925	-0.051989820119430985
66	2.200000000000002	0.5501410466093377	0.030644562612030746	-0.11899932659442986	0.5304435708854053	0.021271076999694993	-0.11177802355547428	0.5095741692781246	0.015705545363950635	-0.08936568467338618	0.47687280399139864	-0.009655237475626688	-0.07271211442109732	0.5778481359293066	-0.03500259107703291	-0.17126933921002058	0.5700251788152112	-0.03204487794512367	-0.15520530251246678	0.557715371641569	-0.027677108952202323	-0.13372505404155216	0.5310035998895918	-0.020673136208214538	-0.10130497215282552	0.557797855586208	-0.06075836596732603	-0.1824923008978101	0.5551997645451765	-0.05999900371054284	-0.16458494788555605	0.5479506049716503	-0.05618135317920464	-0.13661559358664294	0.5240573008184507	-0.04406812368201807	-0.10085908916029845	0.5347551154642344	-0.08163199321100112	-0.1804995593466608	0.5311348681703242	-0.07957311590897514	-0.16295946716371773	0.5253090468900629	-0.07452602301758321	-0.13927895537118845	0.509692536594122	-0.05978304179078153	-0.10502271587058132	0.49620433612080983	-0.0871898306981242	-0.1754999917358565	0.4946434228024472	-0.08445962640375893	-0.158674132645647	0.49321633349208716	-0.080312503706715	-0.13814179696662793	0.4889778043757974	-0.06723024324078275	-0.10479854003165112	0.4622830810018608	-0.023011742144276925	-0.051989820119430985
67	2.233333333333335	0.5491932789691066	0.03077717386397627	-0.12017358909990783	0.5296907068348756	0.021318716515432934	-0.11254553136973139	0.5092392711596737	0.015777973834571468	-0.08974511581721212	0.4768004643767657	-0.009736250496162113	-0.07281472387543586	0.5779828634136143	-0.03570485104710114	-0.1710628518367986	0.5701589208491632	-0.032655419480485004	-0.1550164538027008	0.5578337259150116	-0.028147925546634922	-0.1335739282688121	0.5309953602755938	-0.02084689336847123	-0.10132438326522575	0.5579187788113674	-0.061515710239939736	-0.1822365230064087	0.5552827354701654	-0.060628307441806084	-0.16434060750098772	0.5479985009084394	-0.05661764175363948	-0.13640740078232533	0.5240768725025834	-0.04423237704199423	-0.10076320302961067	0.5347276234918754	-0.08221149517161119	-0.18026908991969076	0.5311034099277604	-0.0800535437650029	-0.1627417306842439	0.5252819256218182	-0.07489476394000127	-0.1390842310236114	0.5097021020475462	-0.0599469138695779	-0.10490014540373993	0.49633350882849014	-0.08779992369642137	-0.1752194716614061	0.494750874794053	-0.0849724488870724	-0.158411715841085	0.49328392933270016	-0.08069587729923705	-0.13790876421290388	0.4889849951694559	-0.06738739406758709	-0.10466290898051456	0.4622830810018608	-0.023011742144276925	-0.051989820119430985
